<mxfile
  host="Electron" 
  agent="Mozilla/5.0 (Macintosh; Intel Mac OS X 10_15_7) AppleWebKit/537.36 (KHTML, like Gecko) draw.io/25.0.2 Chrome/128.0.6613.186 Electron/32.2.5 Safari/537.36" 
  version="25.0.2"
  >
  <diagram
    name="-"
    >
    <mxGraphModel
      grid="1" 
      gridSize="10" 
      guides="1" 
      tooltips="1" 
      connect="1" 
      arrows="1" 
      fold="1" 
      page="1" 
      pageScale="1" 
      pageWidth="1" 
      pageHeight="1" 
      math="0" 
      shadow="0"
      >
      <root>
        <mxCell
          id="page"
          />
        <mxCell
          id="root" 
          parent="page"
          />
        <mxCell
          style="verticalAlign=top;aspect=fixed;align=center;spacingLeft=5;spacingRight=5;spacingBottom=5;strokeColor=none;" 
          id="shape_" 
          parent="root" 
          value=" " 
          vertex="1"
          >
          <mxGeometry
            as="geometry" 
            width="120" 
            height="120" 
            x="0" 
            y="0"
            />
          </mxCell>
        <mxCell
          style="rounded=1;whiteSpace=wrap;verticalAlign=top;align=center;shape=image;verticalLabelPosition=bottom;labelBackgroundColor=default;aspect=fixed;imageAspect=0;editableCssRules=.*;image=data:image/svg+xml,PHN2ZyB4bWxuczp4bGluaz0iaHR0cDovL3d3dy53My5vcmcvMTk5OS94bGluayIgeG1sbnM9Imh0dHA6Ly93d3cudzMub3JnLzIwMDAvc3ZnIiB2aWV3Qm94PSIwLjA1MDAwMDAwNDQ3MDM0ODM2IDAgMjMuOTkwMDAxNjc4NDY2Nzk3IDIzLjk4OTk5Nzg2Mzc2OTUzIiB2ZXJzaW9uPSIxLjEiIGlkPSJMYXllcl8xIiB3aWR0aD0iMjMuOTkwMDAxNjc4NDY2Nzk3IiBoZWlnaHQ9IjIzLjk4OTk5Nzg2Mzc2OTUzIj4mI3hhOyAgPHN0eWxlIHR5cGU9InRleHQvY3NzIj4uc3QwIHsgc3RvcC1jb2xvcjogcmdiKDM1LCAxNDksIDI1NSk7IH0gLnN0MSB7IHN0b3AtY29sb3I6IHJnYigwLCA4NywgMjEwKTsgfSA8L3N0eWxlPiYjeGE7ICA8ZGVmcz4mI3hhOyAgICA8bGluZWFyR3JhZGllbnQgaWQ9IkEiIHgxPSIwIiB5MT0iMCIgeDI9IjI0IiB5Mj0iMjQiIGdyYWRpZW50VW5pdHM9InVzZXJTcGFjZU9uVXNlIj4mI3hhOyAgICAgIDxzdG9wIGNsYXNzPSJzdDAiLz4mI3hhOyAgICAgIDxzdG9wIG9mZnNldD0iMSIgY2xhc3M9InN0MSIvPiYjeGE7ICAgIDwvbGluZWFyR3JhZGllbnQ+JiN4YTsgIDwvZGVmcz4mI3hhOyAgPHBhdGggZmlsbD0idXJsKCNBKSIgZD0iTTEyLjAyLDBjMS42NiwwLDMuMjEuMzEsNC42NS45NCwxLjQ3LjYzLDIuNzYsMS40OSwzLjg1LDIuNTgsMS4xLDEuMSwxLjk2LDIuMzgsMi41OCwzLjg1LjYzLDEuNDQuOTQsMi45OS45NCw0LjY1LDAsLjY2LS4xMywxLjI4LS4zOCwxLjg4LS4yNS41Ni0uNTksMS4wNi0xLjAzLDEuNXMtLjk1Ljc4LTEuNTUsMS4wM2MtLjU2LjI1LTEuMTcuMzgtMS44My4zOGgtNC44NGMtLjc4LDAtMS4xNy40MS0xLjE3LDEuMjJzLjM5LDEuMTcsMS4xNywxLjE3Yy4zOCwwLC43NC4xMywxLjA4LjM4LjQxLjI1LjYxLjU2LjYxLjk0LjA2LjM4LjA1LjcyLS4wNSwxLjAzLS4wOS4yOC0uMjMuNTUtLjQyLjgtLjM0LjQ3LS44My44Ni0xLjQ2LDEuMTctLjU5LjMxLTEuMzUuNDctMi4yNS40Ny0xLjYzLDAtMy4xNi0uMzEtNC42LS45NC0xLjQ0LS42My0yLjcxLTEuNDktMy44LTIuNTgtMS4wNi0xLjEtMS45MS0yLjM2LTIuNTQtMy44Qy4zNiwxNS4yLjA1LDEzLjY1LjA1LDEyLjAycy4zMS0zLjIxLjk0LTQuNjVjLjYzLTEuNDcsMS40OS0yLjc2LDIuNTgtMy44NSwxLjEtMS4xLDIuMzYtMS45NiwzLjgtMi41OCwxLjQ3LS42MywzLjAyLS45NCw0LjY1LS45NFpNMTkuMjYsMTQuNDJjLjY2LDAsMS4yMi0uMjMsMS42OS0uNy40Ny0uNDcuNy0xLjAzLjctMS42OSwwLTEuMzItLjI1LTIuNTUtLjc1LTMuNzEtLjUtMS4xNi0xLjE5LTIuMTgtMi4wNy0zLjA1LS44OC0uODgtMS45MS0xLjU3LTMuMS0yLjA3LTEuMTYtLjUtMi40LS43NS0zLjcxLS43NXMtMi41NS4yNS0zLjcxLjc1Yy0xLjE2LjUtMi4xOCwxLjE5LTMuMDUsMi4wNy0uODguODgtMS41NywxLjg5LTIuMDcsMy4wNS0uNSwxLjE2LS43NSwyLjQtLjc1LDMuNzFzLjI1LDIuNTUuNzUsMy43MWMuNSwxLjE2LDEuMTksMi4xOCwyLjA3LDMuMDUuODguODgsMS44OSwxLjU3LDMuMDUsMi4wNywxLjE2LjUsMi40Ljc1LDMuNzEuNzUuNDcsMCwuODMtLjA4LDEuMDgtLjIzLS42Ni0uMjUtMS4yMS0uNjctMS42NC0xLjI3LS40MS0uNTktLjYxLTEuMjgtLjYxLTIuMDcsMC0uOTcuMzQtMS44MiwxLjAzLTIuNTQuNjktLjcyLDEuNTMtMS4wOCwyLjU0LTEuMDhoNC44NFpNMTguMDQsOS4wMmMuNSwwLC45Mi4xNywxLjI3LjUyLjM0LjM0LjUyLjc3LjUyLDEuMjcsMCwuNTMtLjE3Ljk3LS41MiwxLjMyLS4zNC4zNC0uNzcuNTItMS4yNy41MnMtLjkyLS4xNy0xLjI3LS41MmMtLjM0LS4zNC0uNTItLjc4LS41Mi0xLjMyLDAtLjUuMTctLjkyLjUyLTEuMjcuMzQtLjM0Ljc3LS41MiwxLjI3LS41MlpNMTUuMDMsNC44NGMuNSwwLC45Mi4xNywxLjI3LjUyLjM0LjM0LjUyLjc3LjUyLDEuMjdzLS4xNy45Mi0uNTIsMS4yN2MtLjM0LjM0LS43Ny41Mi0xLjI3LjUycy0uOTItLjE3LTEuMjctLjUyYy0uMzQtLjM0LS41Mi0uNzctLjUyLTEuMjdzLjE3LS45Mi41Mi0xLjI3Yy4zNC0uMzQuNzctLjUyLDEuMjctLjUyWk05LjAyLDQuODRjLjUzLDAsLjk3LjE3LDEuMzIuNTIuMzQuMzQuNTIuNzcuNTIsMS4yN3MtLjE3LjkyLS41MiwxLjI3Yy0uMzQuMzQtLjc4LjUyLTEuMzIuNTItLjUsMC0uOTItLjE3LTEuMjctLjUyLS4zNC0uMzQtLjUyLS43Ny0uNTItMS4yN3MuMTctLjkyLjUyLTEuMjcuNzctLjUyLDEuMjctLjUyWk02LjA2LDkuMDJjLjUsMCwuOTIuMTcsMS4yNy41Mi4zNC4zNC41Mi43Ny41MiwxLjI3LDAsLjUzLS4xNy45Ny0uNTIsMS4zMi0uMzQuMzQtLjc3LjUyLTEuMjcuNTItLjUzLDAtLjk3LS4xNy0xLjMyLS41Mi0uMzQtLjM0LS41Mi0uNzgtLjUyLTEuMzIsMC0uNS4xNy0uOTIuNTItMS4yNy4zNC0uMzQuNzgtLjUyLDEuMzItLjUyWiIvPiYjeGE7PC9zdmc+;strokeColor=none;" 
          id="palette_sap_" 
          parent="shape_" 
          value=" " 
          vertex="1"
          >
          <mxGeometry
            as="geometry" 
            width="60" 
            height="60" 
            x="30" 
            y="30"
            />
          </mxCell>
        </root>
      </mxGraphModel>
    </diagram>
  </mxfile>